<svg width="1920" height="1080" viewBox="0 0 1920 1080" xmlns="http://www.w3.org/2000/svg"><rect width="1920" height="1080" fill="#78bf9a"/><path d="M 0,1080 C 0,1080 0,360 0,360 C 92.28708133971293,302.6507177033493 184.57416267942585,245.30143540669854 425,257 C 665.4258373205741,268.69856459330146 1053.9904306220094,349.444976076555 1315,382 C 1576.0095693779906,414.555023923445 1709.464114832536,398.91866028708137 1650,360 C 1590.535885167464,321.08133971291863 1338.153110047847,258.8803827751196 1351,255 C 1363.846889952153,251.11961722488041 1641.9234449760766,305.5598086124402 1920,360 C 1920,360 1920,1080 1920,1080 Z" fill="#5c6f70" opacity="0.19999999999999998"/><path d="M 0,1080 C 0,1080 0,720 0,720 C 328.47846889952154,685.2344497607655 656.9569377990431,650.4688995215312 755,645 C 853.0430622009569,639.5311004784688 720.6507177033493,663.358851674641 930,667 C 1139.3492822966507,670.641148325359 1690.4401913875597,654.0956937799044 1698,694 C 1705.5598086124403,733.9043062200956 1169.5885167464116,830.2583732057416 1116,844 C 1062.4114832535884,857.7416267942584 1491.2057416267942,788.8708133971293 1920,720 C 1920,720 1920,1080 1920,1080 Z" fill="#5c6f70" opacity="0.39999999999999997"/></svg>