<svg width="1920" height="1080" viewBox="0 0 1920 1080" xmlns="http://www.w3.org/2000/svg"><rect width="1920" height="1080" fill="#69989b"/><path d="M 0,1080 C 0,1080 0,360 0,360 C 195.92378497790867,321.8175625920471 391.84756995581733,283.63512518409425 469,261 C 546.1524300441827,238.36487481590575 504.5335051546392,231.27706185567013 657,276 C 809.4664948453608,320.7229381443299 1156.018409425626,417.25662739322536 1161,453 C 1165.981590574374,488.74337260677464 829.3928571428572,463.6964285714286 802,433 C 774.6071428571428,402.3035714285714 1056.4101620029455,365.9576583210604 1305,358 C 1553.5898379970545,350.0423416789396 1768.9664948453608,370.47293814432993 1880,402 C 1991.0335051546392,433.52706185567007 1997.723858615611,476.1505891016201 1987,471 C 1976.276141384389,465.8494108983799 1948.1380706921946,412.92470544918996 1920,360 C 1920,360 1920,1080 1920,1080 Z" fill="#3d1053" opacity="0.19999999999999998"/><path d="M 0,1080 C 0,1080 0,720 0,720 C -90.88420471281297,713.7853460972018 -181.76840942562595,707.5706921944036 -77,724 C 27.768409425625936,740.4293078055964 328.1894329896908,779.5025773195875 532,779 C 735.8105670103092,778.4974226804125 843.010677466863,738.418998527246 901,693 C 958.989322533137,647.581001472754 967.7678571428573,596.8214285714286 1098,586 C 1228.2321428571427,575.1785714285714 1479.9178939617084,604.2952871870398 1612,649 C 1744.0821060382916,693.7047128129602 1756.5605670103091,753.9974226804123 1860,784 C 1963.4394329896909,814.0025773195877 2157.8398379970545,813.7150220913109 2183,798 C 2208.1601620029455,782.2849779086891 2064.0800810014725,751.1424889543446 1920,720 C 1920,720 1920,1080 1920,1080 Z" fill="#3d1053" opacity="0.39999999999999997"/></svg>