<svg width="1920" height="1080" viewBox="0 0 1920 1080" xmlns="http://www.w3.org/2000/svg"><rect width="1920" height="1080" fill="#cee8a1"/><path d="M 0,1080 C 0,1080 0,360 0,360 C 89.42820512820512,316.2435897435897 178.85641025641024,272.48717948717945 304,264 C 429.14358974358976,255.51282051282053 590.0025641025642,282.29487179487177 684,325 C 777.9974358974358,367.70512820512823 805.1333333333332,426.3333333333333 909,416 C 1012.8666666666668,405.6666666666667 1193.4641025641029,326.37179487179486 1323,332 C 1452.5358974358971,337.62820512820514 1531.0102564102565,428.1794871794872 1622,447 C 1712.9897435897435,465.8205128205128 1816.4948717948719,412.9102564102564 1920,360 C 1920,360 1920,1080 1920,1080 Z" fill="#5e803c" opacity="0.19999999999999998"/><path d="M 0,1080 C 0,1080 0,720 0,720 C 134.5179487179487,782.3923076923077 269.0358974358974,844.7846153846154 360,808 C 450.9641025641026,771.2153846153846 498.37435897435887,635.253846153846 603,601 C 707.6256410256411,566.746153846154 869.4666666666667,634.2000000000002 985,700 C 1100.5333333333333,765.7999999999998 1169.7589743589742,829.946153846154 1280,842 C 1390.2410256410258,854.053846153846 1541.497435897436,814.0153846153845 1655,785 C 1768.502564102564,755.9846153846155 1844.251282051282,737.9923076923078 1920,720 C 1920,720 1920,1080 1920,1080 Z" fill="#5e803c" opacity="0.39999999999999997"/></svg>