<svg width="1920" height="1080" viewBox="0 0 1920 1080" xmlns="http://www.w3.org/2000/svg"><rect width="1920" height="1080" fill="#9ae4c2"/><path d="M 0,1080 C 0,1080 0,270 0,270 C 248.93333333333334,252.26666666666665 497.8666666666667,234.5333333333333 725,254 C 952.1333333333333,273.4666666666667 1157.4666666666667,330.1333333333334 1353,339 C 1548.5333333333333,347.8666666666666 1734.2666666666667,308.9333333333333 1920,270 C 1920,270 1920,1080 1920,1080 Z" fill="#10512c" opacity="0.15"/><path d="M 0,1080 C 0,1080 0,540 0,540 C 151.59999999999997,512.8 303.19999999999993,485.59999999999997 536,473 C 768.8000000000001,460.40000000000003 1082.8,462.4 1327,476 C 1571.2,489.6 1745.6,514.8 1920,540 C 1920,540 1920,1080 1920,1080 Z" fill="#10512c" opacity="0.3"/><path d="M 0,1080 C 0,1080 0,810 0,810 C 187.19999999999993,867.5999999999999 374.39999999999986,925.1999999999999 577,900 C 779.6000000000001,874.8000000000001 997.6000000000001,766.8000000000001 1224,738 C 1450.3999999999999,709.1999999999999 1685.1999999999998,759.5999999999999 1920,810 C 1920,810 1920,1080 1920,1080 Z" fill="#10512c" opacity="0.44999999999999996"/></svg>