<svg width="1920" height="1080" viewBox="0 0 1920 1080" xmlns="http://www.w3.org/2000/svg"><rect width="1920" height="1080" fill="#bbd392"/><path d="M 0,1080 C 0,1080 0,270 0,270 C 196.13333333333333,288.1333333333333 392.26666666666665,306.2666666666667 634,290 C 875.7333333333333,273.7333333333333 1163.0666666666668,223.06666666666666 1385,214 C 1606.9333333333332,204.93333333333334 1763.4666666666667,237.46666666666667 1920,270 C 1920,270 1920,1080 1920,1080 Z" fill="#5e803c" opacity="0.15"/><path d="M 0,1080 C 0,1080 0,540 0,540 C 172.40000000000003,536.8 344.80000000000007,533.6 563,531 C 781.1999999999999,528.4 1045.2,526.4000000000001 1279,528 C 1512.8,529.5999999999999 1716.4,534.8 1920,540 C 1920,540 1920,1080 1920,1080 Z" fill="#5e803c" opacity="0.3"/><path d="M 0,1080 C 0,1080 0,810 0,810 C 168.5333333333333,781.8666666666667 337.0666666666666,753.7333333333333 580,776 C 822.9333333333334,798.2666666666667 1140.2666666666669,870.9333333333333 1376,885 C 1611.7333333333331,899.0666666666667 1765.8666666666666,854.5333333333333 1920,810 C 1920,810 1920,1080 1920,1080 Z" fill="#5e803c" opacity="0.44999999999999996"/></svg>