<svg width="1920" height="1080" viewBox="0 0 1920 1080" xmlns="http://www.w3.org/2000/svg"><rect width="1920" height="1080" fill="#68dfa7"/><path d="M 0,1080 C 0,1080 0,270 0,270 C 206.5333333333333,311.6 413.0666666666666,353.2 624,341 C 834.9333333333334,328.8 1050.2666666666669,262.8 1267,242 C 1483.7333333333331,221.2 1701.8666666666666,245.6 1920,270 C 1920,270 1920,1080 1920,1080 Z" fill="#10512c" opacity="0.15"/><path d="M 0,1080 C 0,1080 0,540 0,540 C 216.93333333333334,513.8666666666667 433.8666666666667,487.7333333333333 639,487 C 844.1333333333333,486.2666666666667 1037.4666666666667,510.9333333333334 1249,524 C 1460.5333333333333,537.0666666666666 1690.2666666666667,538.5333333333333 1920,540 C 1920,540 1920,1080 1920,1080 Z" fill="#10512c" opacity="0.3"/><path d="M 0,1080 C 0,1080 0,810 0,810 C 246.93333333333334,778 493.8666666666667,746 678,733 C 862.1333333333333,720 983.4666666666667,726 1180,742 C 1376.5333333333333,758 1648.2666666666667,784 1920,810 C 1920,810 1920,1080 1920,1080 Z" fill="#10512c" opacity="0.44999999999999996"/></svg>